# xmcd
#
# Track frame offsets:
#       150
#       16072
#       32822
#       49249
#       68216
#       85753
#       102376
#       119260
#       132350
#       148245
#       162523
#
# Disc length: 2379 seconds
#
# Revision: 0
# Processed by: cddbd v1.4PL0 Copyright (c) Steve Scherf et al.
# Submitted via: CD-DA_X-Tractor v0.21
#
DISCID=9909490b
DTITLE=H=RA - joaca bade
DYEAR=1900
DGENRE=
TTITLE0=Joaca, bade
TTITLE1=Hora la romani
TTITLE2=Bade cu dragostea ta
TTITLE3=Singurica, singurea
TTITLE4=Haide si joaca
TTITLE5=Joaca bade (Pinochio noserise RMX)
TTITLE6=Inimioara nu mai plange
TTITLE7=Hai la joc
TTITLE8=Joaca hora-n poienita
TTITLE9=Invarte-ma bade bine
TTITLE10=Hora
EXTD=
EXTT0=
EXTT1=
EXTT2=
EXTT3=
EXTT4=
EXTT5=
EXTT6=
EXTT7=
EXTT8=
EXTT9=
EXTT10=
PLAYORDER=
